<?xml version="1.0" standalone="no"?>
<!DOCTYPE svg PUBLIC "-//W3C//DTD SVG 20010904//EN"
 "http://www.w3.org/TR/2001/REC-SVG-20010904/DTD/svg10.dtd">
<svg version="1.0" xmlns="http://www.w3.org/2000/svg"
 width="1280.000000pt" height="1032.000000pt" viewBox="0 0 1280.000000 1032.000000"
 preserveAspectRatio="xMidYMid meet">
<g transform="translate(0.000000,1032.000000) scale(0.100000,-0.100000)"
fill="#69310b" stroke="none">
<path d="M665 10308 c-22 -5 -69 -16 -105 -24 -84 -20 -191 -71 -266 -128
-137 -105 -226 -252 -269 -442 -27 -119 -30 -168 -15 -241 5 -26 23 -199 39
-383 99 -1097 257 -2847 291 -3220 22 -239 89 -986 150 -1660 61 -674 124
-1371 140 -1550 16 -179 52 -575 80 -881 33 -371 57 -583 70 -635 41 -163 167
-370 285 -467 72 -60 167 -114 252 -144 75 -26 88 -27 337 -33 l260 -5 13 -80
c17 -104 69 -209 137 -279 55 -57 105 -87 195 -117 54 -18 151 -19 2932 -19
l2875 0 72 24 c84 29 146 69 197 128 47 54 91 145 106 217 6 31 14 72 18 91
l7 35 304 6 c336 6 353 9 481 75 147 77 270 207 350 369 60 121 86 222 99 375
10 116 61 863 80 1175 6 94 13 180 16 193 l4 22 823 0 c863 0 940 3 1053 44
181 66 357 234 439 421 49 111 65 196 110 615 44 396 164 1503 205 1885 11 99
51 473 90 830 91 838 96 881 185 1710 41 385 80 719 85 742 6 23 10 61 10 85
0 53 -41 220 -69 283 -30 69 -103 166 -163 220 -58 51 -204 126 -283 146 -38
9 -290 13 -1046 16 l-996 4 -27 80 c-37 115 -98 212 -186 299 -110 109 -217
167 -380 207 -72 17 -268 18 -4510 19 -2768 1 -4450 -2 -4475 -8z m10513
-1902 c82 -32 162 -97 192 -157 13 -24 20 -58 20 -91 0 -29 -74 -874 -165
-1878 l-166 -1825 -30 -62 c-34 -70 -86 -121 -169 -163 -121 -61 -132 -63
-538 -68 -205 -2 -384 -1 -399 3 l-26 6 6 122 c4 67 18 286 32 487 38 560 52
757 95 1400 22 327 44 660 50 740 16 230 69 1013 85 1265 9 127 18 236 20 243
4 10 94 12 462 10 l458 -3 73 -29z"/>
</g>
</svg>
