<?xml version="1.0" standalone="no"?>
<!DOCTYPE svg PUBLIC "-//W3C//DTD SVG 20010904//EN"
 "http://www.w3.org/TR/2001/REC-SVG-20010904/DTD/svg10.dtd">
<svg version="1.0" xmlns="http://www.w3.org/2000/svg"
 width="1280.000000pt" height="1106.000000pt" viewBox="0 0 1280.000000 1106.000000"
 preserveAspectRatio="xMidYMid meet">
<g transform="translate(0.000000,1106.000000) scale(0.100000,-0.100000)"
fill="rgba(255,217,0,0.76)" stroke="none">
<path d="M5540 8943 c-1626 -43 -2765 -213 -3345 -499 -156 -76 -252 -147
-311 -227 l-44 -59 0 -113 c0 -268 52 -780 121 -1200 202 -1228 618 -2288
1197 -3052 186 -246 459 -532 665 -698 48 -38 87 -76 87 -82 0 -10 -346 -13
-1695 -13 l-1695 0 4 -112 c3 -91 9 -128 31 -188 49 -135 128 -251 255 -375
39 -38 90 -97 113 -130 54 -79 233 -256 333 -327 431 -308 1024 -550 1818
-743 1971 -479 4681 -479 6652 0 794 193 1387 435 1818 743 100 71 279 248
333 327 23 33 74 92 113 130 127 124 206 240 255 375 22 60 28 97 31 188 l4
112 -1730 0 c-1084 0 -1730 4 -1730 9 0 6 55 56 123 113 238 200 494 477 686
743 160 221 332 504 437 718 44 89 31 85 204 60 182 -26 510 -23 675 6 676
119 996 539 961 1261 -31 629 -238 937 -687 1025 -49 10 -153 18 -249 20
l-165 4 1 53 c0 29 11 127 22 218 28 208 48 439 62 693 10 188 10 200 -9 242
-95 215 -556 420 -1246 555 -611 119 -1341 188 -2345 220 -264 8 -1473 11
-1750 3z m5550 -2541 c141 -55 221 -167 250 -348 17 -105 14 -319 -4 -388 -37
-134 -143 -271 -270 -345 -84 -50 -224 -100 -356 -128 -128 -26 -380 -44 -380
-25 0 5 22 70 49 144 58 160 134 400 190 598 38 137 52 194 101 404 11 50 26
96 33 104 9 12 41 13 172 10 133 -4 169 -9 215 -26z"/>
</g>
</svg>
